<?xml version="1.0" encoding="UTF-8" standalone="no"?>
<svg
   xmlns:dc="http://purl.org/dc/elements/1.1/"
   xmlns:cc="http://creativecommons.org/ns#"
   xmlns:rdf="http://www.w3.org/1999/02/22-rdf-syntax-ns#"
   xmlns:svg="http://www.w3.org/2000/svg"
   xmlns="http://www.w3.org/2000/svg"
   xmlns:xlink="http://www.w3.org/1999/xlink"
   xmlns:sodipodi="http://sodipodi.sourceforge.net/DTD/sodipodi-0.dtd"
   xmlns:inkscape="http://www.inkscape.org/namespaces/inkscape"
   width="148.49799"
   height="38.73299"
   viewBox="0 0 24.717479 6.4451695"
   preserveAspectRatio="xMinYMin meet"
   version="1.1"
   id="svg4624"
   sodipodi:docname="scaladex-brand.svg"
   inkscape:version="0.92.0 unknown">
  <metadata
     id="metadata4628">
    <rdf:RDF>
      <cc:Work
         rdf:about="">
        <dc:format>image/svg+xml</dc:format>
        <dc:type
           rdf:resource="http://purl.org/dc/dcmitype/StillImage" />
        <dc:title></dc:title>
      </cc:Work>
    </rdf:RDF>
  </metadata>
  <sodipodi:namedview
     pagecolor="#000073"
     bordercolor="#666666"
     borderopacity="1"
     objecttolerance="10"
     gridtolerance="10"
     guidetolerance="10"
     inkscape:pageopacity="0"
     inkscape:pageshadow="2"
     inkscape:window-width="1440"
     inkscape:window-height="847"
     id="namedview4626"
     showgrid="false"
     showguides="false"
     inkscape:guide-bbox="true"
     inkscape:lockguides="false"
     inkscape:zoom="3.9296001"
     inkscape:cx="51.415239"
     inkscape:cy="-1.1647602"
     inkscape:window-x="0"
     inkscape:window-y="0"
     inkscape:window-maximized="1"
     inkscape:current-layer="svg4624"
     fit-margin-top="0"
     fit-margin-left="0"
     fit-margin-right="0"
     fit-margin-bottom="0"
     inkscape:pagecheckerboard="false"
     inkscape:showpageshadow="true"
     showborder="true">
    <sodipodi:guide
       position="-284.33367,237.88179"
       orientation="1,0"
       id="guide4636"
       inkscape:locked="false" />
    <inkscape:grid
       type="xygrid"
       id="grid4638"
       originx="-412.33366"
       originy="-194.3788" />
  </sodipodi:namedview>
  <defs
     id="defs4612">
    <linearGradient
       id="linearGradient4857"
       y2="0.5"
       y1="0.5"
       x1="0">
      <stop
         id="stop4853"
         offset="0%"
         stop-color="#4F4F4F"
         style="stop-color:#ffff00;stop-opacity:1" />
      <stop
         id="stop4855"
         offset="100%"
         style="stop-color:#fbff00;stop-opacity:1" />
    </linearGradient>
    <linearGradient
       id="linearGradient4535"
       y2="0.5"
       y1="0.5"
       x1="0">
      <stop
         id="stop4531"
         offset="0%"
         stop-color="#C40000" />
      <stop
         id="stop4533"
         offset="100%"
         stop-color="#F00"
         style="stop-color:#ffff00;stop-opacity:1" />
    </linearGradient>
    <linearGradient
       x1="0"
       y1="0.5"
       y2="0.5"
       id="a">
      <stop
         stop-color="#4F4F4F"
         offset="0%"
         id="stop4602" />
      <stop
         offset="100%"
         id="stop4604" />
    </linearGradient>
    <linearGradient
       x1="0"
       y1="0.5"
       y2="0.5"
       id="b">
      <stop
         stop-color="#C40000"
         offset="0%"
         id="stop4607" />
      <stop
         stop-color="#F00"
         offset="100%"
         id="stop4609" />
    </linearGradient>
    <linearGradient
       inkscape:collect="always"
       xlink:href="#a"
       id="linearGradient4701"
       gradientUnits="userSpaceOnUse"
       gradientTransform="matrix(0.16542748,0,0,-0.036116,-7.21661,33.027244)"
       x1="0"
       y1="444.17413"
       x2="156.76733"
       y2="444.17413" />
    <linearGradient
       inkscape:collect="always"
       xlink:href="#linearGradient4857"
       id="linearGradient4703"
       gradientUnits="userSpaceOnUse"
       gradientTransform="matrix(0.49044219,0,0,-0.35651384,32.130569,176.9842)"
       x1="0"
       y1="235.15102"
       x2="156.76733"
       y2="235.15102" />
    <linearGradient
       inkscape:collect="always"
       xlink:href="#b"
       id="linearGradient4705"
       gradientUnits="userSpaceOnUse"
       gradientTransform="matrix(0.12813958,0,0,-0.04662556,-7.21661,25.478163)"
       x1="0"
       y1="263.1015"
       x2="202.38577"
       y2="263.1015" />
    <linearGradient
       inkscape:collect="always"
       xlink:href="#linearGradient4535"
       id="linearGradient4707"
       gradientUnits="userSpaceOnUse"
       gradientTransform="matrix(0.37989489,0,0,-0.46025739,32.130569,102.46443)"
       x1="0"
       y1="101.19289"
       x2="202.38577"
       y2="101.19289" />
    <linearGradient
       inkscape:collect="always"
       xlink:href="#b-6"
       id="linearGradient4705-3"
       gradientUnits="userSpaceOnUse"
       gradientTransform="matrix(0.12813958,0,0,-0.03870972,-5.30561,30.143554)"
       x1="0"
       y1="263.1015"
       x2="202.38577"
       y2="263.1015" />
    <linearGradient
       x1="0"
       y1="0.5"
       y2="0.5"
       id="b-6">
      <stop
         stop-color="#C40000"
         offset="0%"
         id="stop4607-7" />
      <stop
         stop-color="#F00"
         offset="100%"
         id="stop4609-5" />
    </linearGradient>
    <linearGradient
       x1="0"
       y1="0.5"
       y2="0.5"
       id="a-5">
      <stop
         stop-color="#4F4F4F"
         offset="0%"
         id="stop4602-6" />
      <stop
         offset="100%"
         id="stop4604-2" />
    </linearGradient>
    <filter
       inkscape:menu="Shadows and Glows"
       inkscape:menu-tooltip="Cut out, add inner shadow and colorize some parts of an image"
       style="color-interpolation-filters:sRGB"
       inkscape:label="Emergence"
       id="filter4923">
      <feColorMatrix
         values="0 0 0 0 0 0 0 0 0 0 0 0 0 0 0 0.21 0.72 0.07 0 0 "
         result="result1"
         id="feColorMatrix4895" />
      <feColorMatrix
         values="1 0 0 0 0 0 1 0 0 0 0 0 1 0 0 0 0 0 2 0 "
         result="result9"
         id="feColorMatrix4897" />
      <feComposite
         in2="result9"
         in="SourceGraphic"
         operator="in"
         result="result4"
         id="feComposite4899" />
      <feFlood
         result="result2"
         flood-color="rgb(0,0,0)"
         id="feFlood4901" />
      <feComposite
         in2="result9"
         operator="in"
         result="result10"
         id="feComposite4903" />
      <feComposite
         in2="result4"
         operator="atop"
         id="feComposite4905" />
      <feGaussianBlur
         stdDeviation="3"
         result="result8"
         id="feGaussianBlur4907" />
      <feOffset
         dx="3"
         dy="3"
         result="result3"
         in="result8"
         id="feOffset4909" />
      <feFlood
         flood-opacity="1"
         flood-color="rgb(219,173,62)"
         result="result5"
         id="feFlood4911" />
      <feMerge
         result="result6"
         id="feMerge4919">
        <feMergeNode
           in="result5"
           id="feMergeNode4913" />
        <feMergeNode
           in="result3"
           id="feMergeNode4915" />
        <feMergeNode
           in="result4"
           id="feMergeNode4917" />
      </feMerge>
      <feComposite
         in2="SourceGraphic"
         operator="in"
         result="result7"
         id="feComposite4921" />
    </filter>
    <filter
       inkscape:menu="Shadows and Glows"
       inkscape:menu-tooltip="Cut out, add inner shadow and colorize some parts of an image"
       style="color-interpolation-filters:sRGB"
       inkscape:label="Emergence"
       id="filter4953">
      <feColorMatrix
         values="0 0 0 0 0 0 0 0 0 0 0 0 0 0 0 0.21 0.72 0.07 0 0 "
         result="result1"
         id="feColorMatrix4925" />
      <feColorMatrix
         values="1 0 0 0 0 0 1 0 0 0 0 0 1 0 0 0 0 0 2 0 "
         result="result9"
         id="feColorMatrix4927" />
      <feComposite
         in2="result9"
         in="SourceGraphic"
         operator="in"
         result="result4"
         id="feComposite4929" />
      <feFlood
         result="result2"
         flood-color="rgb(0,0,0)"
         id="feFlood4931" />
      <feComposite
         in2="result9"
         operator="in"
         result="result10"
         id="feComposite4933" />
      <feComposite
         in2="result4"
         operator="atop"
         id="feComposite4935" />
      <feGaussianBlur
         stdDeviation="3"
         result="result8"
         id="feGaussianBlur4937" />
      <feOffset
         dx="3"
         dy="3"
         result="result3"
         in="result8"
         id="feOffset4939" />
      <feFlood
         flood-opacity="1"
         flood-color="rgb(219,173,62)"
         result="result5"
         id="feFlood4941" />
      <feMerge
         result="result6"
         id="feMerge4949">
        <feMergeNode
           in="result5"
           id="feMergeNode4943" />
        <feMergeNode
           in="result3"
           id="feMergeNode4945" />
        <feMergeNode
           in="result4"
           id="feMergeNode4947" />
      </feMerge>
      <feComposite
         in2="SourceGraphic"
         operator="in"
         result="result7"
         id="feComposite4951" />
    </filter>
  </defs>
  <g
     id="g5006"
     transform="scale(0.3026368)">
    <path
       sodipodi:nodetypes="ccssc"
       inkscape:connector-curvature="0"
       style="fill:url(#linearGradient4701);stroke-width:0.0772954"
       id="path4691"
       d="m 1.382299,17.92907 c -0.188679,0.256132 1.549151,1.29719 2.398992,1.235043 3.710535,-0.500715 5.87957,-0.466509 5.87957,-1.235043 v -1.887272 c 0,-0.768122 -2.752611,-1.386557 -6.463146,-1.887276" />
    <path
       transform="scale(0.10130323)"
       sodipodi:nodetypes="cscsscc"
       inkscape:connector-curvature="0"
       style="fill:url(#linearGradient4703);stroke-width:0.41815001;filter:url(#filter4923)"
       id="path4693"
       d="m 46.504459,83.834518 -14.09856,18.629912 c -1.545,2.04156 2.16227,16.38936 24.93444,26.61953 11.0006,-4.94276 19.16126,-11.04348 19.16126,-18.62994 V 91.824118 c 0,-7.58237 -8.16066,-21.67676 -19.16126,-26.61951 -22.77247,10.2319 -10.83588,15.49193 -10.83588,18.62991" />
    <path
       sodipodi:nodetypes="ccscc"
       inkscape:connector-curvature="0"
       style="fill:url(#linearGradient4705);stroke-width:0.0772954"
       id="path4695"
       d="M 2.772585,13.076621 1.382299,17.92907 c 0,-0.471817 8.238277,-1.993275 7.597983,-4.263808 L 7.749861,9.302081 c 0,2.359085 -4.977276,3.302723 -4.977276,3.77454" />
    <path
       transform="scale(0.10130323)"
       sodipodi:nodetypes="ccscc"
       inkscape:connector-curvature="0"
       style="fill:url(#linearGradient4707);stroke-width:0.41815001;filter:url(#filter4953)"
       id="path4697"
       d="m 46.504459,46.574698 -14.09856,55.889732 c 0,-4.657482 44.92907,-15.295152 39.40833,-37.259822 L 57.766549,9.3149481 c 0,23.2873399 -11.26209,32.6022699 -11.26209,37.2597499" />
    <path
       sodipodi:nodetypes="ccsscc"
       inkscape:connector-curvature="0"
       style="fill:url(#linearGradient4705-3);stroke-width:0.07042902"
       id="path4695-1"
       d="M 0.87385,19.246767 0,21.303105 c 0,-0.388269 10.635455,-0.565648 10.36723,-2.452154 -0.0023,-0.01675 -0.0057,-0.03357 -0.0099,-0.05046 L 9.660926,16.041794 c 0,1.958573 -8.787011,2.813253 -8.787011,3.204969" />
  </g>
  <g
     aria-label="Beacon"
     style="font-style:normal;font-variant:normal;font-weight:bold;font-stretch:normal;font-size:19.63776207px;line-height:12.46315289px;font-family:'Tlwg Typist';-inkscape-font-specification:'Tlwg Typist, Bold';font-variant-ligatures:normal;font-variant-caps:normal;font-variant-numeric:normal;font-feature-settings:normal;text-align:start;letter-spacing:0px;word-spacing:0px;writing-mode:lr-tb;text-anchor:start;fill:#000000;fill-opacity:1;stroke:none;stroke-width:0.4985261px;stroke-linecap:butt;stroke-linejoin:miter;stroke-opacity:1"
     id="text4498"
     transform="scale(0.3026368)">
    <path
       d="M 14.609865,15.217332 V 5.7715682 h -1.060439 q -0.530219,0 -0.530219,-0.412393 0,-0.3927552 0.530219,-0.3927552 h 5.066543 q 1.433556,0 2.395807,0.824786 0.96225,0.8051482 0.96225,2.0226895 0,1.4531944 -1.66921,2.3565315 2.493996,0.883699 2.493996,2.847475 0,1.237179 -0.96225,2.120879 -0.942613,0.883699 -2.277981,0.883699 h -6.009155 q -0.530219,0 -0.530219,-0.412393 0,-0.392755 0.530219,-0.392755 z m 0.805148,-5.3414715 h 2.886752 q 1.256816,0 2.061965,-0.5891329 0.805148,-0.5891328 0.805148,-1.4924699 0,-0.8640615 -0.726597,-1.4335566 -0.726598,-0.5891329 -1.806675,-0.5891329 h -3.220593 z m 0,5.3414715 h 4.084655 q 1.040801,0 1.767399,-0.628409 0.726597,-0.648046 0.726597,-1.571021 0,-0.353479 -0.157102,-0.706959 -0.157102,-0.373117 -0.53022,-0.746235 -0.35348,-0.392755 -1.13899,-0.628408 -0.765873,-0.255291 -1.826312,-0.255291 h -2.926027 z"
       style="font-style:normal;font-variant:normal;font-weight:500;font-stretch:normal;font-size:19.63776207px;font-family:'Tlwg Typist';-inkscape-font-specification:'Tlwg Typist, Medium';font-variant-ligatures:normal;font-variant-caps:normal;font-variant-numeric:normal;font-feature-settings:normal;text-align:start;writing-mode:lr-tb;text-anchor:start;fill:#ffffff;fill-opacity:1;stroke-width:0.4985261px"
       id="path5008"
       inkscape:connector-curvature="0" />
    <path
       d="m 34.161405,12.114565 h -8.169309 q 0.216016,1.551384 1.296093,2.493996 1.080076,0.922975 2.670735,0.922975 0.922975,0 1.885225,-0.294566 0.962251,-0.294567 1.551384,-0.765873 0.196377,-0.137465 0.314204,-0.137465 0.157102,0 0.255291,0.117827 0.117826,0.117827 0.117826,0.274929 0,0.510582 -1.413919,1.060439 -1.394281,0.549857 -2.729649,0.549857 -1.983414,0 -3.377695,-1.335368 -1.374643,-1.335367 -1.374643,-3.24023 0,-1.7870367 1.296092,-2.9849402 1.296093,-1.2175412 3.181318,-1.2175412 1.944138,0 3.220593,1.237179 1.276454,1.2371794 1.276454,3.3187814 z m -8.169309,-0.805148 h 7.344523 Q 33.100966,9.9740493 32.09944,9.168901 31.097914,8.3637528 29.664358,8.3637528 q -1.433557,0 -2.415445,0.8051482 -0.981888,0.7855105 -1.256817,2.140516 z"
       style="font-style:normal;font-variant:normal;font-weight:500;font-stretch:normal;font-size:19.63776207px;font-family:'Tlwg Typist';-inkscape-font-specification:'Tlwg Typist, Medium';font-variant-ligatures:normal;font-variant-caps:normal;font-variant-numeric:normal;font-feature-settings:normal;text-align:start;writing-mode:lr-tb;text-anchor:start;fill:#ffffff;fill-opacity:1;stroke-width:0.4985261px"
       id="path5010"
       inkscape:connector-curvature="0" />
    <path
       d="m 41.537533,8.3637528 q -0.549857,0 -1.237179,0.1571021 -0.687322,0.1571021 -1.178266,0.3142042 -0.490944,0.1571021 -0.569495,0.1571021 -0.157102,0 -0.274929,-0.1178266 -0.09819,-0.1178266 -0.09819,-0.2749287 0,-0.2945664 0.333842,-0.412393 1.826311,-0.6284083 3.083128,-0.6284083 1.374643,0 2.258343,0.6873216 0.903337,0.6873217 0.903337,1.7281231 v 5.2432827 h 1.060439 q 0.53022,0 0.53022,0.392755 0,0.412393 -0.53022,0.412393 h -1.865587 v -1.31573 q -1.747761,1.629934 -3.750813,1.629934 -1.374643,0 -2.219067,-0.687321 -0.844424,-0.70696 -0.844424,-1.826312 0,-1.276455 1.13899,-2.061965 1.158628,-0.805149 3.004578,-0.805149 1.158628,0 2.670736,0.412393 V 9.9740493 q 0,-0.7265972 -0.667684,-1.158628 Q 42.61761,8.3637528 41.537533,8.3637528 Z m 2.415445,5.4592982 v -1.767399 q -1.178266,-0.294566 -2.513634,-0.294566 -1.551383,0 -2.533271,0.589133 -0.962251,0.569495 -0.962251,1.492469 0,0.765873 0.608771,1.237179 0.608771,0.451669 1.629934,0.451669 1.040802,0 1.904863,-0.392755 0.883699,-0.392756 1.865588,-1.31573 z"
       style="font-style:normal;font-variant:normal;font-weight:500;font-stretch:normal;font-size:19.63776207px;font-family:'Tlwg Typist';-inkscape-font-specification:'Tlwg Typist, Medium';font-variant-ligatures:normal;font-variant-caps:normal;font-variant-numeric:normal;font-feature-settings:normal;text-align:start;writing-mode:lr-tb;text-anchor:start;fill:#ffffff;fill-opacity:1;stroke-width:0.4985261px"
       id="path5012"
       inkscape:connector-curvature="0" />
    <path
       d="m 58.005944,14.294357 q 0,0.314204 -0.589133,0.78551 -0.589132,0.471307 -1.669209,0.864062 -1.06044,0.392755 -2.179792,0.392755 -1.924501,0 -3.181317,-1.217541 -1.237179,-1.217541 -1.237179,-3.102766 0,-1.944139 1.276454,-3.2009557 1.276455,-1.2568167 3.240231,-1.2568167 1.826312,0 3.063491,1.0800769 V 8.3833906 q 0,-0.5498574 0.412393,-0.5498574 0.392755,0 0.392755,0.5498574 v 1.7870364 q 0,0.530219 -0.392755,0.530219 -0.35348,0 -0.412393,-0.471306 -0.05891,-0.7855103 -0.981888,-1.3157299 -0.903337,-0.5498573 -2.140516,-0.5498573 -1.629935,0 -2.651098,1.0211636 -1.001526,1.0015256 -1.001526,2.6118226 0,1.551383 1.021163,2.552909 1.021164,0.981888 2.631461,0.981888 2.140516,0 3.672261,-1.413919 0.196378,-0.196378 0.35348,-0.196378 0.157102,0 0.255291,0.117827 0.117826,0.09819 0.117826,0.255291 z"
       style="font-style:normal;font-variant:normal;font-weight:500;font-stretch:normal;font-size:19.63776207px;font-family:'Tlwg Typist';-inkscape-font-specification:'Tlwg Typist, Medium';font-variant-ligatures:normal;font-variant-caps:normal;font-variant-numeric:normal;font-feature-settings:normal;text-align:start;writing-mode:lr-tb;text-anchor:start;fill:#ffffff;fill-opacity:1;stroke-width:0.4985261px"
       id="path5014"
       inkscape:connector-curvature="0" />
    <path
       d="m 65.166056,7.5586046 q 1.885226,0 3.181318,1.2960923 1.296092,1.2764541 1.296092,3.1420421 0,1.806674 -1.31573,3.083128 -1.31573,1.256817 -3.16168,1.256817 -1.865587,0 -3.181317,-1.276454 -1.296092,-1.276455 -1.296092,-3.122404 0,-1.806675 1.296092,-3.0831291 1.31573,-1.2960923 3.181317,-1.2960923 z m 0,0.8051482 q -1.531745,0 -2.611822,1.0408014 -1.060439,1.0408018 -1.060439,2.5332718 0,1.492469 1.060439,2.552909 1.080077,1.040801 2.611822,1.040801 1.512108,0 2.592185,-1.040801 1.080077,-1.040802 1.080077,-2.493996 0,-1.551383 -1.060439,-2.5921848 Q 66.71744,8.3637528 65.166056,8.3637528 Z"
       style="font-style:normal;font-variant:normal;font-weight:500;font-stretch:normal;font-size:19.63776207px;font-family:'Tlwg Typist';-inkscape-font-specification:'Tlwg Typist, Medium';font-variant-ligatures:normal;font-variant-caps:normal;font-variant-numeric:normal;font-feature-settings:normal;text-align:start;writing-mode:lr-tb;text-anchor:start;fill:#ffffff;fill-opacity:1;stroke-width:0.4985261px"
       id="path5016"
       inkscape:connector-curvature="0" />
    <path
       d="m 77.31416,8.3637528 q -0.687321,0 -1.256817,0.2749287 -0.569495,0.2749286 -0.883699,0.6087706 -0.314204,0.333842 -0.844424,1.0015259 v 4.968354 h 0.8837 q 0.530219,0 0.530219,0.392755 0,0.412393 -0.530219,0.412393 h -2.572547 q -0.549858,0 -0.549858,-0.412393 0,-0.392755 0.549858,-0.392755 h 0.883699 V 8.6386815 h -0.667684 q -0.530219,0 -0.530219,-0.412393 0,-0.3927553 0.530219,-0.3927553 h 1.472832 v 1.3550056 q 0.844424,-0.9426126 1.49247,-1.2764545 0.648046,-0.3534797 1.571021,-0.3534797 1.31573,0 2.19943,0.7658727 Q 80.47584,9.09035 80.47584,10.22934 v 4.987992 h 0.667684 q 0.530219,0 0.530219,0.392755 0,0.412393 -0.530219,0.412393 h -2.140516 q -0.53022,0 -0.53022,-0.412393 0,-0.392755 0.53022,-0.392755 h 0.667684 v -4.850527 q 0,-0.6873221 -0.569495,-1.3353683 Q 78.551339,8.3637528 77.31416,8.3637528 Z"
       style="font-style:normal;font-variant:normal;font-weight:500;font-stretch:normal;font-size:19.63776207px;font-family:'Tlwg Typist';-inkscape-font-specification:'Tlwg Typist, Medium';font-variant-ligatures:normal;font-variant-caps:normal;font-variant-numeric:normal;font-feature-settings:normal;text-align:start;writing-mode:lr-tb;text-anchor:start;fill:#ffffff;fill-opacity:1;stroke-width:0.4985261px"
       id="path5018"
       inkscape:connector-curvature="0" />
  </g>
</svg>
